# xmcd
#
# Track frame offsets:
#	150
#	6095
#	27577
#	35252
#	53560
#	74010
#	92517
#	96322
#	116702
#	137092
#	144037
#	167357
#	189142
#	212110
#	231110
#	248280
#	268810
#	275025
#	294982
#	315300
#	335357
#
# Disc length: 4744 seconds
#
# Revision: 2
# Processed by: cddbd v1.5.2PL0 Copyright (c) Steve Scherf et al.
# Submitted via: EZCDAudioConverter 8.3.2.1
#
DISCID=20128615
DTITLE=Various Artist - 走れ! 歌謡曲 プラチナ編 UICZ-4008 2CD2 DE-Magnetic (EZ-WAV)
DYEAR=2002
DGENRE=World Pop
TTITLE0=小池可奈 - ナレーション
TTITLE1=天童よしみ - 珍島物語
TTITLE2=小池可奈 - ナレーション
TTITLE3=松原のぶえ - おんなの出船
TTITLE4=村上幸子 - 不如帰
TTITLE5=坂本冬美 - 祝い酒
TTITLE6=小池可奈 - ナレーション
TTITLE7=香西かおり - 無言坂
TTITLE8=大石円 - 忘れ蛍
TTITLE9=小池可奈 - ナレーション
TTITLE10=徳永英明 - 壊れかけのRadio
TTITLE11=加藤登紀子 - 百万本のバラ
TTITLE12=キム・ヨンジャ - 暗夜航路
TTITLE13=高山巌 - 心凍らせて
TTITLE14=堀内孝雄 - 恋唄綴り
TTITLE15=谷村新司 - 昴 -すばる-
TTITLE16=小池可奈 - ナレーション
TTITLE17=長山洋子 - 蜩 -ひぐらし-
TTITLE18=吉幾三 - 雪國
TTITLE19=瀬川瑛子 - 命くれない
TTITLE20=北島三郎 - 風雪ながれ旅
EXTD=
EXTT0=
EXTT1=
EXTT2=
EXTT3=
EXTT4=
EXTT5=
EXTT6=
EXTT7=
EXTT8=
EXTT9=
EXTT10=
EXTT11=
EXTT12=
EXTT13=
EXTT14=
EXTT15=
EXTT16=
EXTT17=
EXTT18=
EXTT19=
EXTT20=
PLAYORDER=
